Terminal output:

10.6.194.127 - - [19/Nov/2025 18:33:57] "GET /?tmp=7zj2ieWQsoRET4zPR HTTP/1.1" 200 -
Downloading LinkedIn video...
10.6.173.219 - - [19/Nov/2025 18:34:19] "POST /process-url HTTP/1.1" 200 -
Serving file: tmp28c88543/IntroducingAIInterviewerforProductManagementTigranSloyanpostedonthetopicLinkedIn.mp4
Full directory: temp_resources/tmp28c88543
Basename: IntroducingAIInterviewerforProductManagementTigranSloyanpostedonthetopicLinkedIn.mp4
10.6.173.219 - - [19/Nov/2025 18:34:19] "GET /temp_resources/tmp28c88543/IntroducingAIInterviewerforProductManagementTigranSloyanpostedonthetopicLinkedIn.mp4 HTTP/1.1" 206 -
10.6.194.127 - - [19/Nov/2025 18:34:22] "GET / HTTP/1.1" 200 -
10.6.184.102 - - [19/Nov/2025 18:34:22] "GET /favicon.ico HTTP/1.1" 404 -
Downloading LinkedIn video...
10.6.194.127 - - [19/Nov/2025 18:34:27] "POST /process-url HTTP/1.1" 200 -
Serving file: tmpdklvvedz/IntroducingAIInterviewerforProductManagementTigranSloyanpostedonthetopicLinkedIn.mp4
Full directory: temp_resources/tmpdklvvedz
Basename: IntroducingAIInterviewerforProductManagementTigranSloyanpostedonthetopicLinkedIn.mp4
10.6.131.114 - - [19/Nov/2025 18:34:27] "GET /temp_resources/tmpdklvvedz/IntroducingAIInterviewerforProductManagementTigranSloyanpostedonthetopicLinkedIn.mp4 HTTP/1.1" 206 -
Transcribing file: temp_resources/tmpdklvvedz/IntroducingAIInterviewerforProductManagementTigranSloyanpostedonthetopicLinkedIn.mp4
File exists: True

File size (6.69MB) exceeds API limit. Splitting into chunks...

Splitting audio into chunks...

Extracting chunk 1/1:
ffmpeg version 4.4.2-0ubuntu0.22.04.1 Copyright (c) 2000-2021 the FFmpeg developers
  built with gcc 11 (Ubuntu 11.2.0-19ubuntu1)
  configuration: --prefix=/usr --extra-version=0ubuntu0.22.04.1 --toolchain=hardened --libdir=/usr/lib/x86_64-linux-gnu --incdir=/usr/include/x86_64-linux-gnu --arch=amd64 --enable-gpl --disable-stripping --enable-gnutls --enable-ladspa --enable-libaom --enable-libass --enable-libbluray --enable-libbs2b --enable-libcaca --enable-libcdio --enable-libcodec2 --enable-libdav1d --enable-libflite --enable-libfontconfig --enable-libfreetype --enable-libfribidi --enable-libgme --enable-libgsm --enable-libjack --enable-libmp3lame --enable-libmysofa --enable-libopenjpeg --enable-libopenmpt --enable-libopus --enable-libpulse --enable-librabbitmq --enable-librubberband --enable-libshine --enable-libsnappy --enable-libsoxr --enable-libspeex --enable-libsrt --enable-libssh --enable-libtheora --enable-libtwolame --enable-libvidstab --enable-libvorbis --enable-libvpx --enable-libwebp --enable-libx265 --enable-libxml2 --enable-libxvid --enable-libzimg --enable-libzmq --enable-libzvbi --enable-lv2 --enable-omx --enable-openal --enable-opencl --enable-opengl --enable-sdl2 --enable-pocketsphinx --enable-librsvg --enable-libmfx --enable-libdc1394 --enable-libdrm --enable-libiec61883 --enable-chromaprint --enable-frei0r --enable-libx264 --enable-shared
  libavutil      56. 70.100 / 56. 70.100
  libavcodec     58.134.100 / 58.134.100
  libavformat    58. 76.100 / 58. 76.100
  libavdevice    58. 13.100 / 58. 13.100
  libavfilter     7.110.100 /  7.110.100
  libswscale      5.  9.100 /  5.  9.100
  libswresample   3.  9.100 /  3.  9.100
  libpostproc    55.  9.100 / 55.  9.100
Input #0, mov,mp4,m4a,3gp,3g2,mj2, from 'temp_resources/tmpdklvvedz/IntroducingAIInterviewerforProductManagementTigranSloyanpostedonthetopicLinkedIn.mp4':
  Metadata:
    major_brand     : isom
    minor_version   : 512
    compatible_brands: isomiso2avc1mp41
    encoder         : Lavf60.16.100
  Duration: 00:02:57.40, start: 0.000000, bitrate: 316 kb/s
  Stream #0:0(eng): Video: h264 (Main) (avc1 / 0x31637661), yuv420p(tv, bt709), 1280x720, 189 kb/s, 30 fps, 30 tbr, 15360 tbn, 60 tbc (default)
    Metadata:
      handler_name    : ?Mainconcept Video Media Handler
      vendor_id       : [0][0][0][0]
      encoder         : Lavc60.31.102 libx264
  Stream #0:1(eng): Audio: aac (LC) (mp4a / 0x6134706D), 44100 Hz, stereo, fltp, 121 kb/s (default)
    Metadata:
      handler_name    : #Mainconcept MP4 Sound Media Handler
      vendor_id       : [0][0][0][0]
Output #0, mp4, to '/tmp/tmpeizrbuu3.mp4':
  Metadata:
    major_brand     : isom
    minor_version   : 512
    compatible_brands: isomiso2avc1mp41
    encoder         : Lavf58.76.100
  Stream #0:0(eng): Video: h264 (Main) (avc1 / 0x31637661), yuv420p(tv, bt709), 1280x720, q=2-31, 189 kb/s, 30 fps, 30 tbr, 15360 tbn, 15360 tbc (default)
    Metadata:
      handler_name    : ?Mainconcept Video Media Handler
      vendor_id       : [0][0][0][0]
      encoder         : Lavc60.31.102 libx264
  Stream #0:1(eng): Audio: aac (LC) (mp4a / 0x6134706D), 44100 Hz, stereo, fltp, 121 kb/s (default)
    Metadata:
      handler_name    : #Mainconcept MP4 Sound Media Handler
      vendor_id       : [0][0][0][0]
Stream mapping:
  Stream #0:0 -> #0:0 (copy)
  Stream #0:1 -> #0:1 (copy)
Press [q] to stop, [?] for help
frame=    0 fps=0.0 q=-1.0 size=       0kB time=00:00:00.00 bitrate=N/A speed=N/A    
frame= 5262 fps=0.0 q=-1.0 Lsize=    6910kB time=00:02:57.37 bitrate= 319.1kbits/s speed=6.18e+03x    
video:4089kB audio:2634kB subtitle:0kB other streams:0kB global headers:0kB muxing overhead: 2.786793%

Transcribing chunk 1 of 1...
Error generating summary: 'Chat' object has no attribute 'completion'
10.6.194.127 - - [19/Nov/2025 18:34:42] "POST /transcribe HTTP/1.1" 500 -
 * Detected change in '/usercode/FILESYSTEM/transcriber.py', reloading
 * Restarting with stat
 * Debugger is active!
 * Debugger PIN: 984-108-109
10.6.194.127 - - [19/Nov/2025 18:35:59] "GET /?tmp=tggekpMcJ7uLwXF4E HTTP/1.1" 200 -
10.6.222.199 - - [19/Nov/2025 18:36:07] "GET / HTTP/1.1" 200 -
Downloading LinkedIn video...
10.6.222.199 - - [19/Nov/2025 18:36:11] "POST /process-url HTTP/1.1" 200 -
Serving file: tmpcdlbhhpr/IntroducingAIInterviewerforProductManagementTigranSloyanpostedonthetopicLinkedIn.mp4
Full directory: temp_resources/tmpcdlbhhpr
Basename: IntroducingAIInterviewerforProductManagementTigranSloyanpostedonthetopicLinkedIn.mp4
10.6.138.6 - - [19/Nov/2025 18:36:11] "GET /temp_resources/tmpcdlbhhpr/IntroducingAIInterviewerforProductManagementTigranSloyanpostedonthetopicLinkedIn.mp4 HTTP/1.1" 206 -
Transcribing file: temp_resources/tmpcdlbhhpr/IntroducingAIInterviewerforProductManagementTigranSloyanpostedonthetopicLinkedIn.mp4
File exists: True

File size (6.69MB) exceeds API limit. Splitting into chunks...

Splitting audio into chunks...

Extracting chunk 1/1:
ffmpeg version 4.4.2-0ubuntu0.22.04.1 Copyright (c) 2000-2021 the FFmpeg developers
  built with gcc 11 (Ubuntu 11.2.0-19ubuntu1)
  configuration: --prefix=/usr --extra-version=0ubuntu0.22.04.1 --toolchain=hardened --libdir=/usr/lib/x86_64-linux-gnu --incdir=/usr/include/x86_64-linux-gnu --arch=amd64 --enable-gpl --disable-stripping --enable-gnutls --enable-ladspa --enable-libaom --enable-libass --enable-libbluray --enable-libbs2b --enable-libcaca --enable-libcdio --enable-libcodec2 --enable-libdav1d --enable-libflite --enable-libfontconfig --enable-libfreetype --enable-libfribidi --enable-libgme --enable-libgsm --enable-libjack --enable-libmp3lame --enable-libmysofa --enable-libopenjpeg --enable-libopenmpt --enable-libopus --enable-libpulse --enable-librabbitmq --enable-librubberband --enable-libshine --enable-libsnappy --enable-libsoxr --enable-libspeex --enable-libsrt --enable-libssh --enable-libtheora --enable-libtwolame --enable-libvidstab --enable-libvorbis --enable-libvpx --enable-libwebp --enable-libx265 --enable-libxml2 --enable-libxvid --enable-libzimg --enable-libzmq --enable-libzvbi --enable-lv2 --enable-omx --enable-openal --enable-opencl --enable-opengl --enable-sdl2 --enable-pocketsphinx --enable-librsvg --enable-libmfx --enable-libdc1394 --enable-libdrm --enable-libiec61883 --enable-chromaprint --enable-frei0r --enable-libx264 --enable-shared
  libavutil      56. 70.100 / 56. 70.100
  libavcodec     58.134.100 / 58.134.100
  libavformat    58. 76.100 / 58. 76.100
  libavdevice    58. 13.100 / 58. 13.100
  libavfilter     7.110.100 /  7.110.100
  libswscale      5.  9.100 /  5.  9.100
  libswresample   3.  9.100 /  3.  9.100
  libpostproc    55.  9.100 / 55.  9.100
Input #0, mov,mp4,m4a,3gp,3g2,mj2, from 'temp_resources/tmpcdlbhhpr/IntroducingAIInterviewerforProductManagementTigranSloyanpostedonthetopicLinkedIn.mp4':
  Metadata:
    major_brand     : isom
    minor_version   : 512
    compatible_brands: isomiso2avc1mp41
    encoder         : Lavf60.16.100
  Duration: 00:02:57.40, start: 0.000000, bitrate: 316 kb/s
  Stream #0:0(eng): Video: h264 (Main) (avc1 / 0x31637661), yuv420p(tv, bt709), 1280x720, 189 kb/s, 30 fps, 30 tbr, 15360 tbn, 60 tbc (default)
    Metadata:
      handler_name    : ?Mainconcept Video Media Handler
      vendor_id       : [0][0][0][0]
      encoder         : Lavc60.31.102 libx264
  Stream #0:1(eng): Audio: aac (LC) (mp4a / 0x6134706D), 44100 Hz, stereo, fltp, 121 kb/s (default)
    Metadata:
      handler_name    : #Mainconcept MP4 Sound Media Handler
      vendor_id       : [0][0][0][0]
Output #0, mp4, to '/tmp/tmp844ckhrr.mp4':
  Metadata:
    major_brand     : isom
    minor_version   : 512
    compatible_brands: isomiso2avc1mp41
    encoder         : Lavf58.76.100
  Stream #0:0(eng): Video: h264 (Main) (avc1 / 0x31637661), yuv420p(tv, bt709), 1280x720, q=2-31, 189 kb/s, 30 fps, 30 tbr, 15360 tbn, 15360 tbc (default)
    Metadata:
      handler_name    : ?Mainconcept Video Media Handler
      vendor_id       : [0][0][0][0]
      encoder         : Lavc60.31.102 libx264
  Stream #0:1(eng): Audio: aac (LC) (mp4a / 0x6134706D), 44100 Hz, stereo, fltp, 121 kb/s (default)
    Metadata:
      handler_name    : #Mainconcept MP4 Sound Media Handler
      vendor_id       : [0][0][0][0]
Stream mapping:
  Stream #0:0 -> #0:0 (copy)
  Stream #0:1 -> #0:1 (copy)
Press [q] to stop, [?] for help
frame=    0 fps=0.0 q=-1.0 size=       0kB time=00:00:00.00 bitrate=N/A speed=N/A    
frame= 5262 fps=0.0 q=-1.0 Lsize=    6910kB time=00:02:57.37 bitrate= 319.1kbits/s speed=6.19e+03x    
video:4089kB audio:2634kB subtitle:0kB other streams:0kB global headers:0kB muxing overhead: 2.786793%

Transcribing chunk 1 of 1...
10.6.222.199 - - [19/Nov/2025 18:36:28] "POST /transcribe HTTP/1.1" 200 -
